<?xml version="1.0" encoding="UTF-8" standalone="no"?>
<!-- Created with Inkscape (http://www.inkscape.org/) -->

<svg
   xmlns:dc="http://purl.org/dc/elements/1.1/"
   xmlns:cc="http://creativecommons.org/ns#"
   xmlns:rdf="http://www.w3.org/1999/02/22-rdf-syntax-ns#"
   xmlns:svg="http://www.w3.org/2000/svg"
   xmlns="http://www.w3.org/2000/svg"
   xmlns:sodipodi="http://sodipodi.sourceforge.net/DTD/sodipodi-0.dtd"
   xmlns:inkscape="http://www.inkscape.org/namespaces/inkscape"
   width="251.42857"
   height="686.22992"
   viewBox="0 0 33.261906 90.7825"
   version="1.1"
   id="svg8"
   inkscape:version="0.92.5 (2060ec1f9f, 2020-04-08)"
   sodipodi:docname="hexe_sketch_hv_nai.svg">
  <defs
     id="defs2" />
  <sodipodi:namedview
     id="base"
     pagecolor="#ffffff"
     bordercolor="#666666"
     borderopacity="1.0"
     inkscape:pageopacity="0.0"
     inkscape:pageshadow="2"
     inkscape:zoom="0.98994949"
     inkscape:cx="-418.44612"
     inkscape:cy="481.87684"
     inkscape:document-units="mm"
     inkscape:current-layer="layer1"
     showgrid="true"
     inkscape:window-width="2560"
     inkscape:window-height="1376"
     inkscape:window-x="0"
     inkscape:window-y="27"
     inkscape:window-maximized="1"
     fit-margin-top="0"
     fit-margin-left="0"
     fit-margin-right="0"
     fit-margin-bottom="0"
     units="px"
     inkscape:snap-grids="false">
    <inkscape:grid
       type="xygrid"
       id="grid883" />
  </sodipodi:namedview>
  <metadata
     id="metadata5">
    <rdf:RDF>
      <cc:Work
         rdf:about="">
        <dc:format>image/svg+xml</dc:format>
        <dc:type
           rdf:resource="http://purl.org/dc/dcmitype/StillImage" />
        <dc:title></dc:title>
      </cc:Work>
    </rdf:RDF>
  </metadata>
  <g
     inkscape:label="Layer 1"
     inkscape:groupmode="layer"
     id="layer1"
     transform="translate(-16.630952,-169.33242)">
    <rect
       style="opacity:1;fill:#9e9e9e;fill-opacity:1;stroke:#000000;stroke-width:0.5075143;stroke-miterlimit:4;stroke-dasharray:none;stroke-opacity:1;paint-order:stroke markers fill"
       id="rect889"
       width="11.000292"
       height="9.7487373"
       x="38.02541"
       y="216.06279" />
    <path
       style="fill:none;stroke:#000000;stroke-width:1.05833328;stroke-linecap:butt;stroke-linejoin:miter;stroke-miterlimit:4;stroke-dasharray:1.05833333, 1.05833333;stroke-dashoffset:0;stroke-opacity:1"
       d="M 16.630952,239.32389 H 49.892857"
       id="path4487"
       inkscape:connector-curvature="0" />
    <path
       inkscape:connector-curvature="0"
       id="path4489"
       d="M 16.630952,202.55044 H 49.892857"
       style="fill:none;stroke:#000000;stroke-width:1.05833328;stroke-linecap:butt;stroke-linejoin:miter;stroke-miterlimit:4;stroke-dasharray:1.05833333, 1.05833333;stroke-dashoffset:0;stroke-opacity:1" />
    <path
       style="fill:none;stroke:#000000;stroke-width:1.05833328;stroke-linecap:butt;stroke-linejoin:miter;stroke-miterlimit:4;stroke-dasharray:1.05833333, 1.05833333;stroke-dashoffset:0;stroke-opacity:1"
       d="M 16.630952,190.69724 H 49.892857"
       id="path4491"
       inkscape:connector-curvature="0" />
    <rect
       y="169.86159"
       x="20.366152"
       height="9.7821703"
       width="25.791506"
       id="rect4493"
       style="opacity:1;fill:#9e9e9e;fill-opacity:1;stroke:#000000;stroke-width:1.05833328;stroke-miterlimit:4;stroke-dasharray:none;stroke-opacity:1;paint-order:stroke markers fill" />
    <rect
       style="opacity:1;fill:#9e9e9e;fill-opacity:1;stroke:#000000;stroke-width:1.05833328;stroke-miterlimit:4;stroke-dasharray:none;stroke-opacity:1;paint-order:stroke markers fill"
       id="rect4495"
       width="25.791506"
       height="9.7821703"
       x="20.366152"
       y="249.80359" />
    <rect
       y="249.80359"
       x="20.366152"
       height="9.7821703"
       width="25.791506"
       id="rect4505"
       style="opacity:1;fill:#9e9e9e;fill-opacity:1;stroke:#000000;stroke-width:1.05833328;stroke-miterlimit:4;stroke-dasharray:none;stroke-opacity:1;paint-order:stroke markers fill" />
    <rect
       style="opacity:1;fill:#e66a00;fill-opacity:1;stroke:none;stroke-width:0.52898282;stroke-miterlimit:4;stroke-dasharray:none;stroke-opacity:1;paint-order:stroke markers fill"
       id="rect879"
       width="1.9029707"
       height="9.7821655"
       x="35.89465"
       y="216.04608" />
    <path
       style="fill:none;stroke:#33a8ff;stroke-width:0.5;stroke-linecap:butt;stroke-linejoin:miter;stroke-miterlimit:4;stroke-dasharray:none;stroke-opacity:1"
       d="m 19.276781,219.74635 c 0,0 0.551369,0.27229 0.79375,0.45827 0.273893,0.21017 0.488235,0.48824 0.732353,0.73236 0.285049,0.28505 0.520771,0.62998 0.855148,0.85514 0.23826,0.16044 0.506651,0.34464 0.793749,0.33548 0.295663,-0.009 0.553774,-0.22391 0.79375,-0.39688 0.303549,-0.21878 0.529168,-0.52916 0.793751,-0.79374 0.264584,-0.26458 0.490202,-0.57497 0.79375,-0.79375 0.239977,-0.17297 0.497937,-0.39688 0.79375,-0.39688 0.295814,0 0.553775,0.22391 0.793751,0.39688 0.303548,0.21878 0.529166,0.52917 0.79375,0.79375 0.264583,0.26458 0.490202,0.57496 0.79375,0.79374 0.239976,0.17297 0.497937,0.39688 0.793751,0.39688 0.295813,0 0.553773,-0.22391 0.79375,-0.39688 0.303548,-0.21878 0.529166,-0.52916 0.793749,-0.79374 0.264584,-0.26458 0.490202,-0.57497 0.793751,-0.79375 0.239976,-0.17297 0.497937,-0.39688 0.79375,-0.39688 0.295814,0 0.553774,0.22391 0.79375,0.39688 0.303549,0.21878 0.529167,0.52917 0.793751,0.79375 0.264583,0.26458 0.490201,0.57496 0.79375,0.79374 0.239976,0.17297 0.793751,0.39688 0.793751,0.39688"
       id="path887"
       inkscape:connector-curvature="0"
       sodipodi:nodetypes="csssssssssssssssssssc" />
  </g>
</svg>
